<svg width="32" height="32" viewBox="0 0 32 32" fill="none" xmlns="http://www.w3.org/2000/svg">
<rect width="32" height="32" fill="#1B1917"/>
<path d="M8.15625 6.89062C8.65625 6.96875 9.10938 7.03906 9.51562 7.10156C9.92188 7.14844 10.2734 7.1875 10.5703 7.21875C10.9141 7.26562 11.2188 7.30469 11.4844 7.33594C11.8125 7.38281 12.3047 7.32812 12.9609 7.17188C13.6172 7 14.3359 6.84375 15.1172 6.70312C15.9141 6.54688 16.7266 6.46094 17.5547 6.44531C18.3828 6.41406 19.1406 6.5625 19.8281 6.89062C20.5156 7.21875 21.0781 7.54688 21.5156 7.875C21.9531 8.20312 22.2969 8.55469 22.5469 8.92969C22.8125 9.28906 23 9.67188 23.1094 10.0781C23.2188 10.4844 23.2812 10.9297 23.2969 11.4141C23.2812 12.1328 23.1094 12.8281 22.7812 13.5C22.6406 13.7812 22.4531 14.0781 22.2188 14.3906C22 14.6875 21.7266 14.9766 21.3984 15.2578C21.0703 15.5391 20.6797 15.8047 20.2266 16.0547C19.7891 16.3047 19.2734 16.5234 18.6797 16.7109C19.2578 16.8828 19.7344 17.0859 20.1094 17.3203C20.5 17.5547 20.8125 17.7734 21.0469 17.9766C21.3281 18.2266 21.5391 18.4688 21.6797 18.7031C21.8516 19.0312 21.9688 19.3125 22.0312 19.5469C22.0938 19.7812 22.1328 20.0078 22.1484 20.2266C22.1797 20.4297 22.2188 20.6406 22.2656 20.8594C22.3125 21.0781 22.4141 21.3281 22.5703 21.6094C22.6953 21.8281 22.8438 22.0547 23.0156 22.2891C23.1719 22.4922 23.3516 22.7109 23.5547 22.9453C23.7734 23.1797 24.0391 23.4062 24.3516 23.625C23.9141 23.6406 23.5078 23.6484 23.1328 23.6484C22.7734 23.6484 22.4609 23.6484 22.1953 23.6484C21.8828 23.6484 21.5859 23.6406 21.3047 23.625C21.0234 23.6094 20.6719 23.6016 20.25 23.6016C19.8906 23.6016 19.4297 23.6016 18.8672 23.6016C18.3203 23.6016 17.6562 23.6094 16.875 23.625C17.2188 23.3594 17.5 23.0938 17.7188 22.8281C17.9375 22.5625 18.1094 22.3203 18.2344 22.1016C18.375 21.8516 18.4766 21.6094 18.5391 21.375C18.6172 20.9531 18.625 20.5156 18.5625 20.0625C18.5156 19.6719 18.3906 19.2422 18.1875 18.7734C17.9844 18.2891 17.6562 17.8047 17.2031 17.3203C16.75 17.3984 16.3672 17.4609 16.0547 17.5078C15.7578 17.5391 15.5 17.5703 15.2812 17.6016C15.0312 17.6328 14.8281 17.6562 14.6719 17.6719C14.5312 17.6875 14.375 17.7031 14.2031 17.7188C14.0625 17.7344 13.9062 17.7578 13.7344 17.7891C13.5781 17.8047 13.4297 17.8281 13.2891 17.8594C13.2578 18.5312 13.2578 19.1172 13.2891 19.6172C13.3203 20.1016 13.3594 20.5078 13.4062 20.8359C13.4688 21.2266 13.5391 21.5625 13.6172 21.8438C13.6953 22.125 13.8047 22.3984 13.9453 22.6641C14.0547 22.8828 14.1953 23.1172 14.3672 23.3672C14.5391 23.6016 14.7344 23.7969 14.9531 23.9531C14.5469 23.9531 14.1562 23.9531 13.7812 23.9531C13.4219 23.9531 13.0938 23.9453 12.7969 23.9297C12.4531 23.9297 12.125 23.9219 11.8125 23.9062C11.5 23.8906 11.1484 23.8828 10.7578 23.8828C10.4297 23.8828 10.0391 23.8828 9.58594 23.8828C9.14844 23.8828 8.67188 23.8906 8.15625 23.9062C8.5625 23.4844 8.88281 23.125 9.11719 22.8281C9.35156 22.5312 9.53125 22.2812 9.65625 22.0781C9.79688 21.8594 9.88281 21.6719 9.91406 21.5156C9.94531 21.2656 9.96875 20.8203 9.98438 20.1797C10.0156 19.5234 10.0391 18.7734 10.0547 17.9297C10.0703 17.0859 10.0781 16.2031 10.0781 15.2812C10.0781 14.3594 10.0703 13.5 10.0547 12.7031C10.0391 11.8906 10.0234 11.1953 10.0078 10.6172C9.99219 10.0391 9.97656 9.67188 9.96094 9.51562C9.91406 9.23438 9.8125 8.95312 9.65625 8.67188C9.53125 8.42188 9.35156 8.14062 9.11719 7.82812C8.88281 7.51562 8.5625 7.20313 8.15625 6.89062ZM17.0156 15.1406C17.1719 15.0469 17.3047 14.9531 17.4141 14.8594C17.5234 14.7656 17.6172 14.6172 17.6953 14.4141C17.7734 14.1953 17.8359 13.8906 17.8828 13.5C17.9453 13.1094 18.0156 12.5781 18.0938 11.9062C18.1562 11.2344 18.1094 10.6797 17.9531 10.2422C17.8125 9.80469 17.6172 9.46094 17.3672 9.21094C17.1328 8.94531 16.8672 8.76562 16.5703 8.67188C16.2891 8.5625 16.0391 8.50781 15.8203 8.50781C15.3828 8.50781 14.9531 8.64062 14.5312 8.90625C14.1094 9.17188 13.7891 9.53125 13.5703 9.98438C13.4922 10.1875 13.4219 10.5234 13.3594 10.9922C13.3125 11.3984 13.2812 11.9609 13.2656 12.6797C13.25 13.3984 13.2734 14.3438 13.3359 15.5156C13.9297 15.6094 14.4531 15.6484 14.9062 15.6328C15.3594 15.6016 15.7422 15.5469 16.0547 15.4688C16.4297 15.3906 16.75 15.2812 17.0156 15.1406Z" fill="white"/>
</svg>
